<?xml version="1.0" encoding="UTF-8" standalone="no"?>
<!-- Created with Inkscape (http://www.inkscape.org/) -->

<svg
   width="64"
   height="64"
   viewBox="0 0 64 64"
   version="1.1"
   id="svg1"
   inkscape:version="1.4 (e7c3feb100, 2024-10-09)"
   sodipodi:docname="new.svg"
   xmlns:inkscape="http://www.inkscape.org/namespaces/inkscape"
   xmlns:sodipodi="http://sodipodi.sourceforge.net/DTD/sodipodi-0.dtd"
   xmlns="http://www.w3.org/2000/svg"
   xmlns:svg="http://www.w3.org/2000/svg">
  <sodipodi:namedview
     id="namedview1"
     pagecolor="#505050"
     bordercolor="#eeeeee"
     borderopacity="1"
     inkscape:showpageshadow="0"
     inkscape:pageopacity="0"
     inkscape:pagecheckerboard="0"
     inkscape:deskcolor="#505050"
     inkscape:document-units="px"
     inkscape:zoom="5.8961277"
     inkscape:cx="20.606745"
     inkscape:cy="57.156156"
     inkscape:window-width="1280"
     inkscape:window-height="1423"
     inkscape:window-x="1920"
     inkscape:window-y="0"
     inkscape:window-maximized="0"
     inkscape:current-layer="layer1" />
  <defs
     id="defs1" />
  <g
     inkscape:label="Layer 1"
     inkscape:groupmode="layer"
     id="layer1">
    <path
       d="M 32,0 A 32,32 0 0 0 0,32 32,32 0 0 0 32,64 32,32 0 0 0 64,32 32,32 0 0 0 32,0 Z m 0,5 A 27,27 0 0 1 59,32 27,27 0 0 1 32,59 27,27 0 0 1 5,32 27,27 0 0 1 32,5 Z"
       style="fill:#ffffff;stroke-width:0;stroke-linecap:square;stroke-linejoin:round;paint-order:markers stroke fill;fill-opacity:1"
       id="path4" />
    <path
       d="M 32,5 A 27,27 0 0 0 5,32 27,27 0 0 0 32,59 27,27 0 0 0 59,32 27,27 0 0 0 32,5 Z m 0,4 A 23,23 0 0 1 55,32 23,23 0 0 1 32,55 23,23 0 0 1 9,32 23,23 0 0 1 32,9 Z"
       style="fill:#000000;stroke-width:0;stroke-linecap:square;stroke-linejoin:round;paint-order:markers stroke fill;fill-opacity:1"
       id="path5" />
  </g>
</svg>
